# xmcd
#
# Track frame offsets:
#	150
#	17936
#	35291
#	56282
#	71143
#	89926
#	109679
#	131039
#	148653
#	165399
#	186996
#	205626
#	222444
#	236733
#	252916
#	270277
#
# Disc length: 3873 seconds
#
# Revision: 0
# Processed by: cddbd v1.5.2PL0 Copyright (c) Steve Scherf et al.
# Submitted via: EasyCDDAExtractor 11.6.0.1
#
DISCID=ed0f1f10
DTITLE=Tarkan - Star Hits
DYEAR=2005
DGENRE=
TTITLE0=Simarik
TTITLE1=BuGeee
TTITLE2=Dudu
TTITLE3=Skidim
TTITLE4=Gull Doktum
TTITLE5=Ay
TTITLE6=Ikimizim Yerine
TTITLE7=Kuzu-Kuzu
TTITLE8=Hup
TTITLE9=Don bebegim
TTITLE10=Olurum Sana
TTITLE11=Delikanli Caglarim
TTITLE12=Yetti artik
TTITLE13=Durum beter
TTITLE14=Gulemse Kaderine
TTITLE15=Bu Sarkilar Da Olmasa
EXTD=
EXTT0=
EXTT1=
EXTT2=
EXTT3=
EXTT4=
EXTT5=
EXTT6=
EXTT7=
EXTT8=
EXTT9=
EXTT10=
EXTT11=
EXTT12=
EXTT13=
EXTT14=
EXTT15=
PLAYORDER=
